<svg id="svg" version="1.1" xmlns="http://www.w3.org/2000/svg" xmlns:xlink="http://www.w3.org/1999/xlink" width="400" height="399.53051643192487" viewBox="0, 0, 400,399.53051643192487"><g id="svgg"><path id="path0" d="M186.992 0.138 C 186.894 0.227,185.015 0.420,182.817 0.568 C 176.629 0.983,172.920 1.381,171.828 1.748 C 171.498 1.859,170.509 2.042,169.630 2.155 C 168.751 2.269,166.593 2.620,164.835 2.936 C 158.136 4.141,155.634 4.545,155.345 4.472 C 155.180 4.430,155.045 4.565,155.045 4.772 C 155.045 4.979,154.685 5.080,154.246 4.995 C 153.806 4.910,153.447 5.011,153.447 5.218 C 153.447 5.425,152.952 5.605,152.348 5.617 C 151.098 5.644,146.309 6.847,145.554 7.324 C 145.280 7.497,144.875 7.528,144.655 7.393 C 144.436 7.257,144.256 7.325,144.256 7.544 C 144.256 7.763,143.941 7.934,143.556 7.924 C 142.702 7.902,131.044 11.774,129.388 12.630 C 128.733 12.969,128.096 13.144,127.972 13.020 C 127.847 12.896,127.549 12.954,127.309 13.150 C 126.608 13.723,121.879 15.555,121.872 15.257 C 121.869 15.107,121.734 15.170,121.572 15.396 C 121.411 15.621,120.470 16.134,119.481 16.535 C 118.492 16.936,117.413 17.426,117.083 17.624 C 116.017 18.263,112.103 20.052,111.571 20.143 C 111.287 20.192,110.657 20.572,110.172 20.987 C 109.687 21.402,109.291 21.693,109.291 21.634 C 109.291 21.403,107.621 22.164,106.238 23.025 C 105.438 23.523,104.673 23.821,104.539 23.687 C 104.405 23.553,104.296 23.616,104.296 23.827 C 104.296 24.039,103.487 24.545,102.498 24.953 C 101.508 25.361,100.699 25.858,100.699 26.058 C 100.699 26.257,100.518 26.309,100.297 26.172 C 100.076 26.035,99.789 26.198,99.661 26.533 C 99.532 26.868,99.039 27.263,98.564 27.410 C 98.090 27.557,96.785 28.283,95.663 29.024 C 94.541 29.764,93.439 30.370,93.214 30.370 C 92.989 30.370,92.570 30.653,92.283 30.998 C 91.997 31.344,91.051 32.018,90.182 32.497 C 87.533 33.956,87.101 34.232,86.087 35.114 C 85.549 35.581,84.970 35.964,84.800 35.964 C 84.631 35.964,84.240 36.314,83.932 36.742 C 83.623 37.170,83.224 37.429,83.044 37.318 C 82.864 37.207,82.717 37.267,82.717 37.453 C 82.717 37.638,82.133 38.133,81.419 38.553 C 80.704 38.973,79.580 39.820,78.921 40.436 C 78.262 41.051,77.511 41.556,77.252 41.557 C 76.993 41.558,76.428 42.008,75.995 42.557 C 75.563 43.107,75.093 43.556,74.951 43.556 C 74.614 43.556,73.757 44.245,72.089 45.854 C 71.349 46.568,70.645 47.153,70.525 47.153 C 70.317 47.153,69.474 47.903,65.925 51.249 C 65.051 52.073,64.262 52.747,64.172 52.747 C 63.950 52.747,52.348 64.313,52.348 64.534 C 52.348 64.739,50.830 66.437,47.054 70.456 C 45.572 72.035,44.358 73.459,44.357 73.622 C 44.356 73.931,43.445 75.129,42.258 76.384 C 41.873 76.790,41.558 77.229,41.558 77.360 C 41.558 77.490,41.196 78.074,40.753 78.658 C 40.309 79.242,39.635 80.136,39.254 80.645 C 38.873 81.153,38.247 81.917,37.862 82.343 C 37.478 82.769,37.280 83.117,37.424 83.117 C 37.567 83.117,37.298 83.453,36.824 83.863 C 36.351 84.273,35.964 84.779,35.964 84.987 C 35.964 85.194,35.559 85.799,35.065 86.331 C 34.570 86.862,34.205 87.418,34.253 87.566 C 34.301 87.714,34.076 88.055,33.753 88.322 C 33.431 88.590,33.167 89.038,33.167 89.317 C 33.167 89.596,32.886 89.932,32.542 90.064 C 32.199 90.196,32.029 90.485,32.166 90.706 C 32.303 90.928,32.224 91.109,31.992 91.109 C 31.759 91.109,31.568 91.370,31.568 91.688 C 31.568 92.007,31.333 92.412,31.045 92.588 C 30.758 92.763,30.287 93.489,30.000 94.201 C 29.713 94.912,29.291 95.379,29.063 95.238 C 28.834 95.097,28.751 95.148,28.877 95.352 C 29.002 95.555,28.444 96.707,27.635 97.911 C 26.826 99.115,25.646 101.179,25.012 102.498 C 24.378 103.816,23.645 105.165,23.383 105.495 C 23.120 105.824,22.490 107.144,21.981 108.428 C 21.473 109.711,20.815 110.854,20.518 110.968 C 20.222 111.081,19.980 111.475,19.980 111.842 C 19.980 112.209,19.717 112.886,19.395 113.345 C 19.073 113.805,18.923 114.294,19.062 114.433 C 19.200 114.572,19.074 114.685,18.781 114.685 C 18.488 114.685,18.369 114.806,18.516 114.953 C 18.663 115.100,18.507 115.525,18.170 115.897 C 17.833 116.269,17.477 116.990,17.380 117.498 C 17.282 118.007,17.017 118.607,16.793 118.832 C 16.568 119.057,16.384 119.564,16.384 119.960 C 16.384 120.356,16.225 120.679,16.031 120.679 C 15.686 120.679,14.752 123.014,13.914 125.974 C 13.680 126.798,13.323 127.473,13.121 127.473 C 12.918 127.473,12.788 127.697,12.831 127.972 C 12.874 128.247,12.613 129.140,12.249 129.957 C 11.886 130.774,11.588 131.606,11.588 131.806 C 11.588 132.006,11.289 132.866,10.923 133.717 C 10.558 134.568,10.218 135.534,10.169 135.864 C 10.120 136.194,9.704 137.542,9.245 138.861 C 8.787 140.180,8.407 141.573,8.401 141.958 C 8.396 142.343,8.191 142.657,7.945 142.657 C 7.700 142.657,7.590 143.005,7.701 143.431 C 7.813 143.856,7.640 144.580,7.319 145.039 C 6.997 145.499,6.812 146.095,6.908 146.364 C 7.004 146.633,6.863 147.303,6.594 147.852 C 6.325 148.402,5.982 149.651,5.832 150.630 C 5.682 151.608,5.398 152.603,5.200 152.841 C 5.002 153.079,4.897 153.627,4.966 154.060 C 5.036 154.492,4.960 155.025,4.799 155.245 C 4.638 155.465,4.400 156.274,4.271 157.043 C 4.141 157.812,3.732 160.060,3.362 162.038 C 2.991 164.016,2.702 165.949,2.718 166.334 C 2.734 166.718,2.581 167.033,2.377 167.033 C 2.174 167.033,2.019 167.438,2.033 167.932 C 2.047 168.427,1.968 169.371,1.857 170.030 C 1.746 170.689,1.460 173.207,1.221 175.624 C 0.982 178.042,0.690 180.829,0.572 181.818 C 0.454 182.807,0.254 188.921,0.128 195.405 C -0.134 208.829,0.281 217.122,1.805 228.971 C 1.932 229.960,2.030 231.174,2.022 231.668 C 2.014 232.163,2.174 232.567,2.377 232.567 C 2.581 232.567,2.734 232.882,2.718 233.267 C 2.702 233.651,2.991 235.584,3.362 237.562 C 3.732 239.540,4.141 241.788,4.271 242.557 C 4.400 243.327,4.638 244.136,4.799 244.356 C 4.960 244.575,5.036 245.109,4.966 245.541 C 4.897 245.973,4.994 246.512,5.182 246.740 C 5.369 246.967,5.646 247.872,5.796 248.751 C 6.083 250.428,6.609 252.333,7.340 254.346 C 7.580 255.005,7.723 255.859,7.659 256.244 C 7.595 256.628,7.733 256.943,7.967 256.943 C 8.200 256.943,8.392 257.245,8.392 257.614 C 8.392 258.281,8.898 260.046,9.746 262.338 C 9.990 262.997,10.203 263.716,10.218 263.936 C 10.234 264.156,10.549 265.032,10.918 265.883 C 11.287 266.734,11.588 267.594,11.588 267.794 C 11.588 267.994,11.886 268.826,12.249 269.643 C 12.613 270.460,12.874 271.354,12.831 271.628 C 12.788 271.903,12.918 272.128,13.121 272.128 C 13.323 272.128,13.680 272.802,13.914 273.626 C 14.752 276.586,15.686 278.921,16.031 278.921 C 16.225 278.921,16.384 279.245,16.384 279.640 C 16.384 280.036,16.568 280.544,16.793 280.769 C 17.017 280.994,17.282 281.594,17.380 282.102 C 17.477 282.611,17.833 283.331,18.170 283.704 C 18.507 284.076,18.663 284.501,18.516 284.648 C 18.369 284.795,18.488 284.915,18.781 284.915 C 19.074 284.915,19.200 285.029,19.062 285.167 C 18.923 285.306,19.073 285.796,19.395 286.255 C 19.717 286.715,19.980 287.391,19.980 287.758 C 19.980 288.126,20.222 288.519,20.518 288.633 C 20.815 288.746,21.473 289.889,21.981 291.173 C 22.490 292.456,23.125 293.776,23.394 294.106 C 23.943 294.778,25.728 298.154,25.756 298.571 C 25.766 298.720,26.494 299.972,27.373 301.355 C 28.252 302.737,28.922 304.023,28.861 304.212 C 28.801 304.400,28.915 304.454,29.115 304.330 C 29.314 304.207,29.713 304.688,30.000 305.400 C 30.287 306.111,30.758 306.837,31.045 307.013 C 31.333 307.189,31.568 307.593,31.568 307.912 C 31.568 308.231,31.759 308.492,31.992 308.492 C 32.224 308.492,32.315 308.652,32.194 308.849 C 32.072 309.046,32.241 309.310,32.570 309.436 C 32.898 309.562,33.167 309.884,33.167 310.152 C 33.167 310.419,33.571 311.083,34.066 311.627 C 34.560 312.171,34.695 312.471,34.366 312.293 C 34.036 312.116,34.171 312.363,34.665 312.844 C 35.160 313.324,35.564 313.882,35.564 314.083 C 35.564 314.285,36.022 314.907,36.582 315.466 C 37.141 316.026,37.501 316.484,37.381 316.484 C 37.261 316.484,37.478 316.832,37.862 317.257 C 38.247 317.683,38.873 318.447,39.254 318.956 C 39.635 319.464,40.309 320.358,40.753 320.942 C 41.196 321.526,41.558 322.111,41.558 322.241 C 41.558 322.371,41.873 322.810,42.258 323.217 C 43.432 324.458,44.355 325.668,44.365 325.979 C 44.370 326.141,45.629 327.610,47.162 329.243 C 48.696 330.876,49.950 332.370,49.950 332.563 C 49.950 332.756,50.104 332.819,50.291 332.703 C 50.479 332.587,50.835 332.937,51.082 333.479 C 51.329 334.022,51.715 334.466,51.939 334.466 C 52.164 334.466,52.348 334.642,52.348 334.857 C 52.348 335.295,63.215 346.162,66.143 348.651 C 67.176 349.530,68.516 350.744,69.119 351.349 C 69.723 351.953,70.335 352.448,70.480 352.448 C 70.625 352.448,71.349 353.032,72.089 353.746 C 73.757 355.355,74.614 356.044,74.951 356.044 C 75.093 356.044,75.563 356.494,75.995 357.043 C 76.428 357.592,76.998 358.042,77.263 358.042 C 77.527 358.042,78.323 358.571,79.032 359.218 C 79.740 359.865,80.859 360.713,81.518 361.102 C 82.178 361.492,82.717 361.962,82.717 362.148 C 82.717 362.333,82.864 362.394,83.044 362.283 C 83.224 362.172,83.623 362.431,83.932 362.859 C 84.240 363.286,84.631 363.636,84.800 363.636 C 84.970 363.636,85.549 364.019,86.087 364.487 C 87.066 365.338,87.817 365.806,90.173 367.032 C 90.868 367.393,91.750 368.036,92.133 368.460 C 92.517 368.884,93.009 369.231,93.227 369.231 C 93.445 369.231,94.541 369.836,95.663 370.577 C 96.785 371.317,98.090 372.043,98.564 372.190 C 99.039 372.338,99.532 372.732,99.661 373.068 C 99.789 373.403,100.076 373.565,100.297 373.428 C 100.518 373.292,100.699 373.343,100.699 373.543 C 100.699 373.742,101.508 374.239,102.498 374.647 C 103.487 375.055,104.296 375.562,104.296 375.773 C 104.296 375.984,104.405 376.048,104.539 375.913 C 104.673 375.779,105.438 376.077,106.238 376.575 C 107.702 377.487,109.010 378.076,109.204 377.911 C 109.262 377.862,109.737 378.221,110.260 378.707 C 110.782 379.194,111.318 379.531,111.449 379.455 C 111.581 379.379,112.677 379.826,113.886 380.449 C 116.641 381.870,117.253 382.155,119.481 383.062 C 120.470 383.465,121.369 383.906,121.479 384.043 C 121.588 384.180,122.156 384.409,122.740 384.552 C 123.324 384.695,124.673 385.201,125.737 385.676 C 126.801 386.151,127.852 386.566,128.072 386.598 C 128.292 386.631,129.011 386.890,129.670 387.175 C 130.330 387.459,131.768 387.952,132.867 388.270 C 133.966 388.587,135.225 389.006,135.664 389.200 C 137.412 389.971,143.287 391.767,143.756 391.673 C 144.031 391.618,144.256 391.723,144.256 391.905 C 144.256 392.087,144.570 392.254,144.955 392.276 C 145.340 392.299,146.956 392.697,148.546 393.161 C 150.137 393.626,151.890 394.006,152.442 394.006 C 152.995 394.006,153.447 394.175,153.447 394.383 C 153.447 394.590,153.806 394.690,154.246 394.605 C 154.685 394.521,155.045 394.605,155.045 394.793 C 155.045 394.981,155.495 395.085,156.044 395.025 C 156.593 394.964,157.043 395.049,157.043 395.214 C 157.043 395.378,158.077 395.633,159.341 395.781 C 160.604 395.928,163.077 396.315,164.835 396.640 C 166.593 396.965,168.661 397.320,169.431 397.429 C 170.200 397.537,171.279 397.728,171.828 397.852 C 172.378 397.977,173.546 398.156,174.426 398.250 C 175.305 398.344,176.653 398.497,177.423 398.590 C 186.965 399.737,213.509 399.723,222.777 398.565 C 223.656 398.455,224.915 398.308,225.574 398.238 C 226.234 398.169,227.403 397.997,228.172 397.857 C 228.941 397.717,230.020 397.531,230.569 397.443 C 231.119 397.355,232.735 397.069,234.162 396.808 C 237.080 396.274,243.693 395.188,244.456 395.118 C 244.730 395.092,244.955 394.932,244.955 394.762 C 244.955 394.591,245.315 394.521,245.754 394.605 C 246.194 394.690,246.553 394.590,246.553 394.383 C 246.553 394.175,247.005 394.006,247.558 394.006 C 248.110 394.006,249.863 393.626,251.454 393.161 C 253.044 392.697,254.660 392.299,255.045 392.276 C 255.430 392.254,255.744 392.087,255.744 391.905 C 255.744 391.723,255.969 391.618,256.244 391.672 C 256.968 391.816,270.451 387.283,271.668 386.487 C 272.234 386.117,272.570 386.019,272.417 386.268 C 272.263 386.518,272.809 386.378,273.631 385.958 C 274.453 385.537,275.844 384.982,276.723 384.724 C 277.602 384.466,278.412 384.151,278.521 384.024 C 278.631 383.898,279.530 383.466,280.519 383.065 C 281.508 382.664,282.677 382.140,283.117 381.901 C 284.982 380.888,287.951 379.515,288.429 379.445 C 288.713 379.403,289.253 379.106,289.628 378.785 C 290.003 378.464,290.443 378.156,290.605 378.100 C 291.842 377.680,292.491 377.367,293.762 376.575 C 294.562 376.077,295.327 375.779,295.461 375.913 C 295.595 376.048,295.704 375.984,295.704 375.773 C 295.704 375.562,296.513 375.055,297.502 374.647 C 298.492 374.239,299.301 373.742,299.301 373.543 C 299.301 373.343,299.482 373.292,299.703 373.428 C 299.924 373.565,300.211 373.403,300.339 373.068 C 300.468 372.732,300.961 372.338,301.436 372.190 C 301.910 372.043,303.215 371.317,304.337 370.577 C 305.459 369.836,306.481 369.231,306.610 369.231 C 306.738 369.231,308.025 368.422,309.469 367.433 C 310.914 366.444,312.231 365.634,312.396 365.634 C 312.561 365.634,313.180 365.185,313.773 364.635 C 314.365 364.086,314.998 363.636,315.179 363.636 C 315.360 363.636,315.760 363.286,316.068 362.859 C 316.377 362.431,316.776 362.172,316.956 362.283 C 317.136 362.394,317.283 362.333,317.283 362.148 C 317.283 361.962,317.822 361.492,318.482 361.102 C 319.141 360.713,320.260 359.865,320.968 359.218 C 321.677 358.571,322.473 358.042,322.737 358.042 C 323.002 358.042,323.572 357.592,324.005 357.043 C 324.437 356.494,324.907 356.044,325.049 356.044 C 325.386 356.044,326.243 355.355,327.911 353.746 C 328.651 353.032,329.429 352.448,329.640 352.448 C 329.850 352.448,330.151 352.240,330.308 351.986 C 330.497 351.681,330.416 351.634,330.070 351.848 C 329.724 352.062,329.643 352.015,329.832 351.710 C 329.989 351.456,330.284 351.249,330.489 351.249 C 330.941 351.249,332.096 350.339,334.166 348.352 C 335.025 347.527,335.787 346.853,335.860 346.853 C 336.061 346.853,347.652 335.267,347.652 335.066 C 347.652 334.862,349.170 333.163,352.946 329.144 C 354.428 327.565,355.642 326.141,355.643 325.979 C 355.644 325.670,356.555 324.472,357.742 323.217 C 358.127 322.810,358.444 322.343,358.448 322.178 C 358.451 322.013,359.009 321.249,359.688 320.480 C 360.366 319.710,361.177 318.586,361.490 317.982 C 361.802 317.378,362.244 316.883,362.471 316.883 C 362.699 316.883,362.793 316.736,362.682 316.556 C 362.571 316.377,362.830 315.977,363.258 315.669 C 363.686 315.361,364.036 314.903,364.036 314.652 C 364.036 314.400,364.530 313.690,365.135 313.072 C 365.739 312.455,365.964 312.100,365.634 312.283 C 365.305 312.466,365.440 312.171,365.934 311.627 C 366.429 311.083,366.833 310.419,366.833 310.152 C 366.833 309.884,367.102 309.562,367.430 309.436 C 367.759 309.310,367.928 309.046,367.806 308.849 C 367.685 308.652,367.776 308.492,368.008 308.492 C 368.241 308.492,368.432 308.231,368.432 307.912 C 368.432 307.593,368.667 307.189,368.955 307.013 C 369.242 306.837,369.713 306.111,370.000 305.400 C 370.287 304.688,370.686 304.207,370.885 304.330 C 371.085 304.454,371.199 304.400,371.139 304.212 C 371.078 304.023,371.748 302.737,372.627 301.355 C 373.506 299.972,374.234 298.720,374.244 298.571 C 374.272 298.154,376.057 294.778,376.606 294.106 C 376.875 293.776,377.510 292.456,378.019 291.173 C 378.527 289.889,379.185 288.746,379.482 288.633 C 379.778 288.519,380.020 288.126,380.020 287.758 C 380.020 287.391,380.283 286.715,380.605 286.255 C 380.927 285.796,381.077 285.306,380.938 285.167 C 380.800 285.029,380.926 284.915,381.219 284.915 C 381.512 284.915,381.631 284.795,381.484 284.648 C 381.337 284.501,381.493 284.076,381.830 283.704 C 382.167 283.331,382.523 282.611,382.620 282.102 C 382.718 281.594,382.983 280.994,383.207 280.769 C 383.432 280.544,383.616 280.036,383.616 279.640 C 383.616 279.245,383.775 278.921,383.969 278.921 C 384.326 278.921,385.265 276.539,386.145 273.401 C 386.410 272.452,386.777 271.823,386.958 272.002 C 387.140 272.181,387.244 272.058,387.189 271.728 C 387.135 271.399,387.387 270.460,387.751 269.643 C 388.114 268.826,388.412 267.994,388.412 267.794 C 388.412 267.594,388.711 266.734,389.077 265.883 C 389.442 265.032,389.782 264.066,389.831 263.736 C 389.880 263.407,390.296 262.058,390.755 260.739 C 391.213 259.421,391.593 258.027,391.599 257.642 C 391.604 257.258,391.801 256.943,392.037 256.943 C 392.273 256.943,392.395 256.628,392.308 256.244 C 392.220 255.859,392.400 255.033,392.707 254.408 C 393.014 253.784,393.170 253.176,393.052 253.059 C 392.935 252.942,393.077 252.374,393.367 251.797 C 393.657 251.221,394.018 249.949,394.168 248.971 C 394.318 247.993,394.602 246.998,394.800 246.759 C 394.998 246.521,395.103 245.973,395.034 245.541 C 394.964 245.109,395.040 244.575,395.201 244.356 C 395.362 244.136,395.600 243.327,395.729 242.557 C 395.859 241.788,396.268 239.540,396.638 237.562 C 397.009 235.584,397.298 233.651,397.282 233.267 C 397.266 232.882,397.419 232.567,397.623 232.567 C 397.826 232.567,397.981 232.163,397.967 231.668 C 397.952 231.174,398.038 229.960,398.158 228.971 C 398.691 224.585,399.196 220.210,399.404 218.182 C 400.332 209.121,399.973 184.493,398.783 175.624 C 398.168 171.037,397.940 168.883,397.967 167.932 C 397.981 167.438,397.826 167.033,397.623 167.033 C 397.419 167.033,397.266 166.718,397.282 166.334 C 397.298 165.949,397.009 164.016,396.638 162.038 C 396.268 160.060,395.859 157.812,395.729 157.043 C 395.600 156.274,395.362 155.465,395.201 155.245 C 395.040 155.025,394.964 154.492,395.034 154.060 C 395.103 153.627,395.006 153.088,394.818 152.861 C 394.515 152.494,394.059 150.657,393.328 146.853 C 393.201 146.194,392.872 145.328,392.597 144.929 C 392.322 144.530,392.187 143.856,392.299 143.431 C 392.410 143.005,392.300 142.657,392.055 142.657 C 391.809 142.657,391.604 142.343,391.599 141.958 C 391.593 141.573,391.213 140.180,390.755 138.861 C 390.296 137.542,389.880 136.194,389.831 135.864 C 389.782 135.534,389.442 134.568,389.077 133.717 C 388.711 132.866,388.412 132.006,388.412 131.806 C 388.412 131.606,388.114 130.774,387.751 129.957 C 387.387 129.140,387.135 128.202,387.189 127.872 C 387.244 127.542,387.140 127.419,386.958 127.598 C 386.777 127.778,386.410 127.148,386.145 126.200 C 385.265 123.061,384.326 120.679,383.969 120.679 C 383.775 120.679,383.616 120.356,383.616 119.960 C 383.616 119.564,383.432 119.057,383.207 118.832 C 382.983 118.607,382.718 118.007,382.620 117.498 C 382.523 116.990,382.167 116.269,381.830 115.897 C 381.493 115.525,381.337 115.100,381.484 114.953 C 381.631 114.806,381.512 114.685,381.219 114.685 C 380.926 114.685,380.800 114.572,380.938 114.433 C 381.077 114.294,380.927 113.805,380.605 113.345 C 380.283 112.886,380.020 112.209,380.020 111.842 C 380.020 111.475,379.778 111.081,379.482 110.968 C 379.185 110.854,378.527 109.711,378.019 108.428 C 377.510 107.144,376.888 105.824,376.635 105.495 C 376.382 105.165,375.737 103.996,375.202 102.897 C 374.667 101.798,373.509 99.741,372.629 98.325 C 371.749 96.910,371.078 95.592,371.139 95.398 C 371.199 95.204,371.085 95.146,370.885 95.270 C 370.686 95.393,370.287 94.912,370.000 94.201 C 369.713 93.489,369.242 92.763,368.955 92.588 C 368.667 92.412,368.432 92.007,368.432 91.688 C 368.432 91.370,368.241 91.109,368.008 91.109 C 367.776 91.109,367.697 90.928,367.834 90.706 C 367.971 90.485,367.801 90.196,367.458 90.064 C 367.114 89.932,366.833 89.596,366.833 89.317 C 366.833 89.038,366.569 88.590,366.247 88.322 C 365.924 88.055,365.699 87.714,365.747 87.566 C 365.795 87.418,365.430 86.862,364.935 86.331 C 364.441 85.799,364.036 85.168,364.036 84.928 C 364.036 84.688,363.686 84.240,363.258 83.932 C 362.830 83.623,362.571 83.224,362.682 83.044 C 362.793 82.864,362.699 82.717,362.471 82.717 C 362.244 82.717,361.802 82.223,361.490 81.618 C 361.177 81.014,360.366 79.890,359.688 79.121 C 359.009 78.352,358.451 77.587,358.448 77.423 C 358.444 77.258,358.127 76.790,357.742 76.384 C 356.568 75.143,355.645 73.933,355.635 73.622 C 355.630 73.459,354.371 71.991,352.838 70.358 C 351.304 68.725,350.050 67.231,350.050 67.037 C 350.050 66.844,349.896 66.781,349.709 66.897 C 349.521 67.013,349.165 66.664,348.918 66.121 C 348.671 65.579,348.285 65.135,348.061 65.135 C 347.836 65.135,347.652 64.959,347.652 64.743 C 347.652 64.528,344.963 61.695,341.676 58.449 C 334.138 51.006,333.345 50.278,331.324 48.940 C 329.887 47.989,328.876 47.014,330.132 47.790 C 330.418 47.967,330.485 47.900,330.308 47.614 C 330.151 47.360,329.850 47.153,329.640 47.153 C 329.429 47.153,328.651 46.568,327.911 45.854 C 326.243 44.245,325.386 43.556,325.049 43.556 C 324.907 43.556,324.437 43.107,324.005 42.557 C 323.572 42.008,323.007 41.558,322.748 41.557 C 322.489 41.556,321.738 41.051,321.079 40.436 C 320.420 39.820,319.296 38.973,318.581 38.553 C 317.867 38.133,317.283 37.638,317.283 37.453 C 317.283 37.267,317.136 37.207,316.956 37.318 C 316.776 37.429,316.377 37.170,316.068 36.742 C 315.760 36.314,315.369 35.964,315.200 35.964 C 315.030 35.964,314.451 35.581,313.913 35.114 C 312.934 34.262,312.183 33.794,309.827 32.568 C 309.132 32.207,308.250 31.565,307.867 31.141 C 307.483 30.717,306.991 30.370,306.773 30.370 C 306.555 30.370,305.459 29.764,304.337 29.024 C 303.215 28.283,301.910 27.557,301.436 27.410 C 300.961 27.263,300.468 26.868,300.339 26.533 C 300.211 26.198,299.924 26.035,299.703 26.172 C 299.482 26.309,299.301 26.257,299.301 26.058 C 299.301 25.858,298.492 25.361,297.502 24.953 C 296.513 24.545,295.704 24.039,295.704 23.827 C 295.704 23.616,295.595 23.553,295.461 23.687 C 295.327 23.821,294.562 23.523,293.762 23.025 C 292.536 22.262,291.590 21.808,290.509 21.463 C 290.400 21.428,290.003 21.137,289.628 20.816 C 289.253 20.495,288.713 20.192,288.429 20.143 C 287.496 19.982,283.958 18.281,283.403 17.726 C 283.104 17.427,282.609 17.183,282.303 17.183 C 281.574 17.183,278.805 15.898,278.428 15.385 C 278.266 15.165,278.131 15.107,278.128 15.257 C 278.121 15.555,273.392 13.723,272.691 13.150 C 272.451 12.954,272.140 12.908,272.001 13.047 C 271.862 13.187,271.518 13.112,271.238 12.880 C 270.958 12.649,269.471 12.071,267.932 11.595 C 266.394 11.119,264.775 10.577,264.336 10.389 C 262.456 9.587,256.702 7.836,256.244 7.927 C 255.969 7.982,255.744 7.829,255.744 7.586 C 255.744 7.344,255.564 7.257,255.345 7.393 C 255.125 7.528,254.720 7.497,254.446 7.324 C 253.691 6.847,248.902 5.644,247.652 5.617 C 247.048 5.605,246.553 5.425,246.553 5.218 C 246.553 5.011,246.194 4.910,245.754 4.995 C 245.315 5.080,244.955 4.995,244.955 4.807 C 244.955 4.620,244.501 4.516,243.946 4.577 C 243.392 4.638,242.852 4.549,242.747 4.379 C 242.642 4.210,241.613 3.951,240.459 3.805 C 239.305 3.659,236.833 3.262,234.965 2.925 C 233.097 2.587,231.119 2.240,230.569 2.154 C 229.695 2.017,228.188 1.743,226.174 1.354 C 225.844 1.291,224.226 1.130,222.577 0.997 C 220.929 0.864,219.041 0.665,218.382 0.554 C 216.905 0.306,187.241 -0.088,186.992 0.138 M214.186 9.756 C 215.175 9.846,217.782 10.046,219.980 10.201 C 222.178 10.355,224.128 10.621,224.313 10.792 C 224.498 10.963,225.352 11.009,226.211 10.893 C 227.097 10.775,227.772 10.852,227.772 11.071 C 227.772 11.284,228.602 11.490,229.617 11.529 C 230.631 11.567,231.623 11.698,231.821 11.821 C 232.019 11.943,232.673 12.121,233.273 12.215 C 237.225 12.837,239.641 13.281,240.160 13.479 C 240.490 13.606,240.939 13.744,241.159 13.787 C 241.379 13.829,241.693 13.914,241.858 13.975 C 242.244 14.118,242.469 14.171,244.156 14.521 C 250.090 15.751,251.748 16.180,251.748 16.483 C 251.748 16.674,251.937 16.714,252.168 16.571 C 252.399 16.428,253.167 16.587,253.876 16.923 C 254.584 17.259,255.609 17.616,256.153 17.717 C 257.204 17.911,260.213 18.906,264.635 20.522 C 266.119 21.064,267.335 21.388,267.339 21.243 C 267.342 21.098,267.495 21.216,267.678 21.505 C 267.862 21.794,268.264 22.074,268.571 22.126 C 269.666 22.312,272.334 23.279,272.707 23.625 C 272.916 23.818,273.411 23.976,273.806 23.976 C 274.202 23.976,274.525 24.186,274.525 24.442 C 274.525 24.699,274.642 24.792,274.784 24.650 C 274.927 24.507,275.691 24.729,276.483 25.143 C 277.274 25.557,278.551 26.124,279.321 26.404 C 280.090 26.684,281.220 27.258,281.833 27.680 C 282.445 28.101,283.164 28.486,283.431 28.533 C 284.647 28.751,285.714 29.259,285.714 29.621 C 285.714 29.839,285.864 29.925,286.047 29.811 C 286.230 29.698,287.016 30.038,287.794 30.567 C 288.572 31.095,289.663 31.642,290.219 31.781 C 290.775 31.921,291.562 32.341,291.969 32.714 C 292.375 33.088,293.492 33.800,294.452 34.297 C 295.411 34.794,296.458 35.462,296.778 35.782 C 297.098 36.102,297.592 36.364,297.877 36.364 C 298.161 36.364,298.868 36.736,299.447 37.192 C 300.026 37.647,300.500 37.910,300.500 37.775 C 300.500 37.546,300.977 37.890,302.283 39.061 C 302.589 39.336,303.026 39.560,303.253 39.560 C 303.480 39.560,304.032 39.954,304.480 40.435 C 304.928 40.916,305.295 41.164,305.295 40.986 C 305.295 40.808,306.089 41.314,307.060 42.110 C 308.031 42.905,308.975 43.557,309.158 43.557 C 309.341 43.557,309.970 43.962,310.556 44.456 C 313.171 46.662,313.488 46.906,313.517 46.735 C 313.552 46.523,315.903 48.373,318.013 50.272 C 318.820 50.999,319.975 51.857,320.579 52.180 C 321.184 52.503,321.678 52.943,321.678 53.157 C 321.678 53.371,321.882 53.546,322.132 53.546 C 322.382 53.546,322.969 53.951,323.437 54.446 C 324.485 55.552,328.010 58.493,328.507 58.675 C 328.707 58.748,328.871 59.068,328.871 59.387 C 328.871 59.705,329.186 60.084,329.570 60.229 C 329.955 60.374,331.349 61.577,332.667 62.902 C 333.986 64.227,335.200 65.272,335.365 65.223 C 335.529 65.175,335.664 65.295,335.664 65.491 C 335.664 65.687,336.608 66.796,337.762 67.956 C 338.916 69.116,339.861 70.170,339.862 70.297 C 339.863 70.425,340.762 71.448,341.860 72.571 C 344.469 75.240,347.643 78.881,348.205 79.851 C 348.451 80.275,349.685 81.847,350.949 83.346 C 352.213 84.844,353.247 86.298,353.247 86.577 C 353.247 86.856,353.606 87.277,354.046 87.512 C 354.486 87.748,354.845 88.209,354.845 88.538 C 354.845 88.867,355.115 89.239,355.445 89.366 C 355.774 89.492,356.044 89.827,356.044 90.110 C 356.044 90.393,356.325 90.732,356.669 90.864 C 357.012 90.995,357.181 91.284,357.045 91.506 C 356.908 91.727,356.986 91.908,357.219 91.908 C 357.452 91.908,357.642 92.086,357.642 92.303 C 357.642 92.520,357.957 93.066,358.342 93.515 C 358.726 93.964,359.041 94.473,359.041 94.647 C 359.041 94.820,359.356 95.277,359.740 95.661 C 360.125 96.046,360.440 96.591,360.440 96.873 C 360.440 97.155,360.870 97.851,361.397 98.418 C 361.923 98.986,362.253 99.552,362.129 99.676 C 362.006 99.799,362.081 99.900,362.296 99.900 C 362.512 99.900,362.935 100.529,363.237 101.299 C 363.539 102.068,363.942 102.697,364.134 102.697 C 364.326 102.697,364.383 102.858,364.262 103.055 C 364.140 103.252,364.309 103.516,364.638 103.642 C 364.966 103.768,365.235 104.060,365.235 104.291 C 365.235 104.522,365.723 105.472,366.321 106.402 C 367.394 108.072,368.836 110.595,368.829 110.789 C 368.814 111.211,369.861 113.487,370.071 113.487 C 370.217 113.487,370.754 114.520,371.264 115.784 C 371.773 117.048,372.424 118.320,372.709 118.610 C 372.994 118.900,373.227 119.293,373.227 119.483 C 373.227 119.673,373.436 120.334,373.693 120.953 C 373.949 121.572,374.189 122.168,374.226 122.278 C 374.263 122.388,374.502 122.984,374.759 123.602 C 375.015 124.221,375.225 124.880,375.225 125.068 C 375.225 125.255,375.406 125.468,375.628 125.542 C 375.850 125.616,376.107 126.069,376.200 126.549 C 376.292 127.028,376.820 128.365,377.372 129.519 C 377.924 130.674,378.286 131.764,378.176 131.943 C 378.065 132.122,378.157 132.268,378.380 132.268 C 378.603 132.268,378.906 132.942,379.055 133.766 C 379.203 134.590,379.503 135.490,379.721 135.764 C 379.939 136.039,380.002 136.264,379.861 136.264 C 379.720 136.264,379.971 136.983,380.420 137.862 C 380.868 138.741,381.119 139.461,380.978 139.461 C 380.837 139.461,380.898 139.685,381.113 139.960 C 381.329 140.235,381.909 141.988,382.403 143.856 C 382.896 145.724,383.427 147.433,383.583 147.652 C 383.860 148.044,384.638 151.075,384.967 153.047 C 385.485 156.156,385.772 157.344,386.219 158.242 C 386.493 158.791,386.827 160.140,386.962 161.239 C 387.096 162.338,387.277 163.596,387.362 164.036 C 387.665 165.589,388.139 168.439,388.194 169.038 C 388.225 169.372,388.348 169.821,388.468 170.037 C 388.589 170.253,388.653 170.924,388.611 171.528 C 388.569 172.133,388.686 172.627,388.871 172.627 C 389.055 172.627,389.107 173.256,388.984 174.025 C 388.862 174.793,388.903 175.647,389.075 175.923 C 389.424 176.482,389.406 176.387,389.754 179.421 C 390.984 190.156,390.820 213.110,389.445 222.777 C 389.414 222.997,389.247 223.402,389.075 223.678 C 388.903 223.953,388.862 224.807,388.984 225.576 C 389.107 226.344,389.055 226.973,388.871 226.973 C 388.686 226.973,388.569 227.468,388.611 228.072 C 388.653 228.676,388.589 229.347,388.468 229.563 C 388.348 229.779,388.225 230.229,388.194 230.562 C 388.141 231.139,387.693 233.844,387.366 235.564 C 387.283 236.004,387.107 237.173,386.977 238.162 C 386.846 239.151,386.401 241.039,385.988 242.358 C 385.575 243.676,385.139 245.385,385.020 246.154 C 384.681 248.337,383.895 251.507,383.583 251.948 C 383.427 252.168,382.896 253.876,382.403 255.744 C 381.909 257.612,381.329 259.366,381.113 259.640 C 380.898 259.915,380.837 260.140,380.978 260.140 C 381.119 260.140,380.868 260.859,380.420 261.738 C 379.971 262.617,379.720 263.337,379.861 263.337 C 380.002 263.337,379.939 263.561,379.721 263.836 C 379.503 264.111,379.203 265.010,379.055 265.834 C 378.906 266.658,378.603 267.333,378.380 267.333 C 378.157 267.333,378.065 267.479,378.176 267.658 C 378.286 267.836,377.924 268.927,377.372 270.081 C 376.820 271.235,376.295 272.559,376.205 273.024 C 376.116 273.488,375.843 273.991,375.600 274.141 C 375.356 274.292,375.185 274.485,375.219 274.570 C 375.253 274.655,375.059 275.265,374.787 275.924 C 374.515 276.583,374.270 277.213,374.241 277.323 C 373.926 278.552,372.992 280.519,372.723 280.519 C 372.535 280.519,372.492 280.699,372.627 280.919 C 372.763 281.139,372.726 281.319,372.545 281.319 C 372.364 281.319,371.896 282.218,371.506 283.317 C 371.116 284.416,370.613 285.315,370.390 285.315 C 370.166 285.315,370.094 285.495,370.230 285.714 C 370.366 285.934,370.326 286.114,370.141 286.114 C 369.787 286.114,368.654 288.518,368.482 289.635 C 368.454 289.813,368.065 290.353,367.617 290.834 C 367.169 291.315,366.901 291.708,367.022 291.708 C 367.144 291.708,366.791 292.424,366.239 293.299 C 365.687 294.174,365.235 295.078,365.235 295.309 C 365.235 295.540,364.966 295.832,364.638 295.959 C 364.309 296.085,364.140 296.349,364.262 296.545 C 364.383 296.742,364.326 296.903,364.134 296.903 C 363.942 296.903,363.539 297.532,363.237 298.302 C 362.935 299.071,362.512 299.700,362.296 299.700 C 362.081 299.700,362.006 299.801,362.129 299.925 C 362.253 300.048,361.923 300.614,361.397 301.182 C 360.870 301.750,360.440 302.445,360.440 302.727 C 360.440 303.009,360.125 303.554,359.740 303.939 C 359.356 304.324,359.041 304.780,359.041 304.954 C 359.041 305.127,358.726 305.636,358.342 306.086 C 357.957 306.535,357.642 307.015,357.642 307.153 C 357.642 307.291,357.328 307.662,356.943 307.978 C 356.486 308.353,356.451 308.461,356.843 308.292 C 357.235 308.122,357.201 308.231,356.743 308.606 C 356.359 308.921,356.044 309.365,356.044 309.592 C 356.044 309.819,355.774 310.108,355.445 310.234 C 355.115 310.361,354.845 310.733,354.845 311.062 C 354.845 311.391,354.486 311.853,354.046 312.088 C 353.606 312.323,353.247 312.744,353.247 313.023 C 353.247 313.302,352.213 314.757,350.949 316.255 C 349.685 317.753,348.451 319.325,348.205 319.749 C 347.643 320.719,344.469 324.360,341.860 327.029 C 340.762 328.152,339.863 329.188,339.862 329.331 C 339.859 329.774,330.311 339.086,329.570 339.368 C 329.186 339.515,328.871 339.896,328.871 340.214 C 328.871 340.532,328.707 340.852,328.507 340.926 C 328.010 341.108,324.485 344.048,323.437 345.155 C 322.969 345.649,322.442 346.054,322.265 346.054 C 321.949 346.054,321.744 346.218,319.562 348.224 C 318.948 348.789,318.363 349.251,318.264 349.251 C 318.164 349.251,317.741 349.565,317.323 349.950 C 315.798 351.356,313.542 353.043,313.361 352.913 C 313.260 352.839,313.066 352.929,312.932 353.113 C 312.563 353.617,309.375 356.044,309.082 356.044 C 308.941 356.044,308.031 356.695,307.060 357.491 C 306.089 358.286,305.295 358.792,305.295 358.614 C 305.295 358.436,304.928 358.684,304.480 359.165 C 304.032 359.646,303.402 360.040,303.081 360.040 C 302.760 360.040,302.498 360.220,302.498 360.440 C 302.498 360.659,302.222 360.839,301.886 360.839 C 301.549 360.839,301.171 361.108,301.044 361.436 C 300.918 361.765,300.654 361.934,300.458 361.812 C 300.261 361.691,300.100 361.770,300.100 361.989 C 300.100 362.207,299.471 362.613,298.701 362.892 C 297.932 363.170,297.303 363.552,297.303 363.740 C 297.303 363.929,297.123 363.972,296.903 363.836 C 296.683 363.700,296.503 363.748,296.503 363.942 C 296.503 364.135,295.649 364.720,294.605 365.242 C 293.561 365.763,292.375 366.499,291.969 366.878 C 291.562 367.256,290.775 367.680,290.219 367.819 C 289.663 367.959,288.572 368.505,287.794 369.034 C 287.016 369.562,286.230 369.902,286.047 369.789 C 285.864 369.676,285.714 369.762,285.714 369.979 C 285.714 370.341,284.647 370.849,283.431 371.067 C 283.164 371.115,282.445 371.496,281.833 371.914 C 280.540 372.796,275.267 375.057,274.825 374.919 C 274.660 374.867,274.525 375.005,274.525 375.225 C 274.525 375.445,274.276 375.624,273.972 375.624 C 273.667 375.624,272.903 375.893,272.273 376.221 C 271.644 376.550,270.825 376.819,270.453 376.821 C 270.082 376.822,269.664 377.006,269.526 377.229 C 269.388 377.453,269.123 377.541,268.936 377.425 C 268.749 377.310,268.312 377.500,267.964 377.847 C 267.617 378.194,267.333 378.392,267.333 378.286 C 267.333 378.180,266.119 378.537,264.635 379.079 C 258.366 381.370,257.082 381.773,254.645 382.213 C 253.711 382.382,252.947 382.687,252.947 382.892 C 252.947 383.096,252.747 383.140,252.503 382.989 C 252.258 382.838,251.944 382.887,251.803 383.096 C 251.566 383.452,247.749 384.476,244.555 385.041 C 243.786 385.177,242.977 385.322,242.757 385.363 C 242.537 385.404,242.133 385.577,241.858 385.749 C 241.583 385.921,241.179 385.950,240.959 385.814 C 240.739 385.678,240.559 385.723,240.559 385.913 C 240.559 386.231,233.519 387.475,233.275 387.200 C 233.215 387.133,232.778 387.286,232.302 387.540 C 231.827 387.795,230.613 388.034,229.605 388.072 C 228.597 388.110,227.772 388.316,227.772 388.529 C 227.772 388.749,227.097 388.826,226.211 388.707 C 225.352 388.592,224.498 388.637,224.313 388.807 C 224.128 388.977,222.268 389.236,220.180 389.382 C 218.092 389.529,214.855 389.769,212.987 389.915 C 208.595 390.259,191.405 390.259,187.013 389.915 C 185.145 389.769,181.908 389.529,179.820 389.382 C 177.732 389.236,175.872 388.977,175.687 388.807 C 175.502 388.637,174.648 388.592,173.789 388.707 C 172.903 388.826,172.228 388.749,172.228 388.529 C 172.228 388.316,171.398 388.110,170.383 388.072 C 169.369 388.033,168.377 387.902,168.179 387.780 C 167.981 387.657,167.327 387.480,166.727 387.385 C 162.775 386.763,160.359 386.320,159.840 386.121 C 159.510 385.995,159.061 385.856,158.841 385.814 C 158.621 385.771,158.307 385.686,158.142 385.625 C 157.756 385.483,157.531 385.429,155.844 385.079 C 149.910 383.849,148.252 383.421,148.252 383.118 C 148.252 382.927,148.063 382.887,147.832 383.029 C 147.601 383.172,146.833 383.014,146.124 382.678 C 145.416 382.341,144.391 381.984,143.847 381.884 C 142.796 381.690,139.787 380.695,135.365 379.079 C 133.881 378.537,132.665 378.212,132.661 378.357 C 132.658 378.503,132.505 378.385,132.322 378.095 C 132.138 377.806,131.736 377.526,131.429 377.474 C 130.665 377.344,127.765 376.373,127.273 376.083 C 127.053 375.953,126.621 375.809,126.314 375.762 C 126.006 375.716,125.604 375.441,125.421 375.151 C 125.237 374.862,125.084 374.772,125.081 374.951 C 125.078 375.130,124.401 374.922,123.576 374.490 C 122.752 374.058,121.449 373.476,120.679 373.196 C 119.910 372.917,118.780 372.343,118.167 371.921 C 117.555 371.499,116.836 371.115,116.569 371.067 C 115.353 370.849,114.286 370.341,114.286 369.979 C 114.286 369.762,114.136 369.676,113.953 369.789 C 113.770 369.902,112.984 369.562,112.206 369.034 C 111.428 368.505,110.337 367.959,109.781 367.819 C 109.225 367.680,108.438 367.260,108.031 366.886 C 107.625 366.512,106.508 365.800,105.548 365.303 C 104.589 364.807,103.542 364.138,103.222 363.818 C 102.902 363.499,102.408 363.237,102.123 363.237 C 101.839 363.237,101.132 362.864,100.553 362.409 C 99.974 361.953,99.500 361.690,99.500 361.825 C 99.500 362.055,99.023 361.710,97.717 360.539 C 97.411 360.265,96.974 360.040,96.747 360.040 C 96.520 360.040,95.968 359.646,95.520 359.165 C 95.072 358.684,94.705 358.436,94.705 358.614 C 94.705 358.792,93.911 358.286,92.940 357.491 C 91.969 356.695,91.025 356.044,90.842 356.043 C 90.659 356.043,90.030 355.639,89.444 355.144 C 86.829 352.938,86.512 352.694,86.483 352.865 C 86.448 353.077,84.097 351.227,81.987 349.328 C 81.180 348.602,80.025 347.743,79.421 347.420 C 78.816 347.097,78.322 346.657,78.322 346.443 C 78.322 346.229,78.118 346.054,77.868 346.054 C 77.618 346.054,77.031 345.649,76.563 345.155 C 75.515 344.048,71.990 341.108,71.493 340.926 C 71.293 340.852,71.128 340.583,71.127 340.326 C 71.127 340.070,70.138 339.097,68.930 338.164 C 67.722 337.231,66.733 336.287,66.733 336.066 C 66.733 335.845,66.464 335.664,66.134 335.664 C 65.804 335.664,65.534 335.477,65.534 335.249 C 65.534 335.020,64.321 333.655,62.837 332.214 C 61.354 330.774,60.139 329.478,60.138 329.333 C 60.137 329.189,59.238 328.152,58.140 327.029 C 55.443 324.271,52.185 320.531,51.985 319.964 C 51.895 319.710,50.682 318.195,49.288 316.596 C 47.894 314.998,46.753 313.426,46.753 313.103 C 46.753 312.780,46.394 312.323,45.954 312.088 C 45.514 311.853,45.155 311.391,45.155 311.062 C 45.155 310.733,44.885 310.361,44.555 310.234 C 44.226 310.108,43.956 309.748,43.956 309.435 C 43.956 309.122,43.687 308.763,43.359 308.637 C 43.031 308.511,42.861 308.247,42.983 308.050 C 43.105 307.853,43.014 307.692,42.781 307.692 C 42.548 307.692,42.358 307.515,42.358 307.297 C 42.358 307.080,42.043 306.535,41.658 306.086 C 41.274 305.636,40.959 305.127,40.959 304.954 C 40.959 304.780,40.644 304.324,40.260 303.939 C 39.875 303.554,39.560 303.009,39.560 302.727 C 39.560 302.445,39.130 301.750,38.603 301.182 C 38.077 300.614,37.747 300.048,37.871 299.925 C 37.994 299.801,37.919 299.700,37.704 299.700 C 37.488 299.700,37.065 299.071,36.763 298.302 C 36.461 297.532,36.058 296.903,35.866 296.903 C 35.674 296.903,35.628 296.723,35.764 296.503 C 35.900 296.284,35.815 296.104,35.575 296.104 C 35.336 296.104,35.024 295.789,34.882 295.405 C 34.740 295.020,34.167 293.986,33.609 293.107 C 32.454 291.288,31.069 288.809,31.042 288.511 C 30.979 287.819,30.138 286.114,29.859 286.114 C 29.674 286.114,29.634 285.934,29.770 285.714 C 29.906 285.495,29.860 285.315,29.668 285.315 C 29.252 285.315,27.972 282.741,27.972 281.905 C 27.972 281.582,27.806 281.319,27.603 281.319 C 27.401 281.319,27.018 280.644,26.752 279.820 C 26.487 278.996,26.068 278.069,25.822 277.761 C 25.576 277.452,25.432 277.183,25.503 277.161 C 25.573 277.140,25.438 276.617,25.203 275.998 C 24.968 275.379,24.775 274.720,24.775 274.533 C 24.775 274.346,24.594 274.132,24.372 274.058 C 24.150 273.984,23.893 273.531,23.800 273.052 C 23.708 272.572,23.180 271.235,22.628 270.081 C 22.076 268.927,21.714 267.836,21.824 267.658 C 21.935 267.479,21.843 267.333,21.620 267.333 C 21.397 267.333,21.094 266.658,20.945 265.834 C 20.797 265.010,20.497 264.111,20.279 263.836 C 20.061 263.561,19.998 263.337,20.139 263.337 C 20.280 263.337,20.052 262.662,19.631 261.838 C 19.211 261.014,18.825 260.160,18.773 259.940 C 18.722 259.720,18.622 259.361,18.552 259.141 C 18.482 258.921,18.047 257.393,17.585 255.744 C 17.123 254.096,16.587 252.388,16.393 251.948 C 16.073 251.220,15.459 248.711,14.977 246.154 C 14.873 245.604,14.669 244.525,14.524 243.756 C 14.379 242.987,14.037 241.818,13.765 241.159 C 13.493 240.500,13.161 239.151,13.028 238.162 C 12.895 237.173,12.717 236.004,12.634 235.564 C 12.307 233.844,11.859 231.139,11.806 230.562 C 11.775 230.229,11.652 229.779,11.532 229.563 C 11.411 229.347,11.347 228.676,11.389 228.072 C 11.431 227.468,11.314 226.973,11.129 226.973 C 10.945 226.973,10.893 226.344,11.016 225.576 C 11.138 224.807,11.097 223.953,10.925 223.678 C 10.575 223.118,10.592 223.208,10.249 220.180 C 9.137 210.383,9.137 189.217,10.249 179.421 C 10.592 176.393,10.575 176.483,10.925 175.923 C 11.097 175.647,11.138 174.793,11.016 174.025 C 10.893 173.256,10.945 172.627,11.129 172.627 C 11.314 172.627,11.431 172.133,11.389 171.528 C 11.347 170.924,11.411 170.253,11.532 170.037 C 11.652 169.821,11.775 169.372,11.806 169.038 C 11.859 168.462,12.307 165.757,12.634 164.036 C 12.717 163.596,12.893 162.428,13.023 161.439 C 13.154 160.450,13.599 158.561,14.012 157.243 C 14.425 155.924,14.861 154.216,14.980 153.447 C 15.319 151.263,16.105 148.093,16.417 147.652 C 16.573 147.433,17.104 145.724,17.597 143.856 C 18.091 141.988,18.671 140.235,18.887 139.960 C 19.102 139.685,19.163 139.461,19.022 139.461 C 18.881 139.461,19.132 138.741,19.580 137.862 C 20.029 136.983,20.280 136.264,20.139 136.264 C 19.998 136.264,20.061 136.039,20.279 135.764 C 20.497 135.490,20.797 134.590,20.945 133.766 C 21.094 132.942,21.397 132.268,21.620 132.268 C 21.843 132.268,21.935 132.122,21.824 131.943 C 21.714 131.764,22.076 130.674,22.628 129.519 C 23.180 128.365,23.705 127.041,23.795 126.577 C 23.884 126.113,24.157 125.610,24.400 125.459 C 24.644 125.309,24.815 125.116,24.781 125.030 C 24.747 124.945,24.941 124.336,25.213 123.676 C 25.485 123.017,25.730 122.388,25.759 122.278 C 26.074 121.048,27.008 119.081,27.277 119.081 C 27.465 119.081,27.508 118.901,27.373 118.681 C 27.237 118.462,27.316 118.282,27.549 118.282 C 27.782 118.282,27.972 118.046,27.972 117.757 C 27.972 117.184,29.520 113.808,29.931 113.487 C 30.071 113.377,30.439 112.747,30.749 112.088 C 31.310 110.892,31.424 110.578,31.518 109.965 C 31.546 109.787,31.935 109.248,32.383 108.767 C 32.831 108.286,33.099 107.892,32.978 107.892 C 32.856 107.892,33.209 107.176,33.761 106.302 C 34.313 105.427,34.765 104.522,34.765 104.291 C 34.765 104.060,35.034 103.768,35.362 103.642 C 35.691 103.516,35.860 103.252,35.738 103.055 C 35.617 102.858,35.674 102.697,35.866 102.697 C 36.058 102.697,36.461 102.068,36.763 101.299 C 37.065 100.529,37.488 99.900,37.704 99.900 C 37.919 99.900,37.994 99.799,37.871 99.676 C 37.747 99.552,38.077 98.986,38.603 98.418 C 39.130 97.851,39.560 97.155,39.560 96.873 C 39.560 96.591,39.875 96.046,40.260 95.661 C 40.644 95.277,40.959 94.820,40.959 94.647 C 40.959 94.473,41.274 93.964,41.658 93.515 C 42.043 93.066,42.358 92.520,42.358 92.303 C 42.358 92.086,42.548 91.908,42.781 91.908 C 43.014 91.908,43.105 91.747,42.983 91.550 C 42.861 91.354,43.031 91.090,43.359 90.964 C 43.687 90.837,43.956 90.478,43.956 90.165 C 43.956 89.852,44.226 89.492,44.555 89.366 C 44.885 89.239,45.155 88.867,45.155 88.538 C 45.155 88.209,45.514 87.748,45.954 87.512 C 46.394 87.277,46.753 86.820,46.753 86.497 C 46.753 86.174,47.894 84.602,49.288 83.004 C 50.682 81.406,51.895 79.890,51.985 79.636 C 52.185 79.070,55.443 75.330,58.140 72.571 C 59.238 71.448,60.137 70.414,60.138 70.273 C 60.139 70.131,61.084 69.072,62.238 67.918 C 63.392 66.764,64.336 65.655,64.336 65.454 C 64.336 65.252,64.478 65.176,64.653 65.284 C 64.827 65.392,65.587 64.755,66.342 63.868 C 67.096 62.982,68.482 61.705,69.421 61.031 C 70.360 60.356,71.129 59.580,71.129 59.306 C 71.129 59.032,71.293 58.748,71.493 58.675 C 71.990 58.493,75.515 55.552,76.563 54.446 C 77.031 53.951,77.558 53.546,77.735 53.546 C 78.051 53.546,78.256 53.382,80.438 51.377 C 81.052 50.812,81.637 50.350,81.736 50.350 C 81.836 50.350,82.259 50.035,82.677 49.650 C 84.156 48.287,86.277 46.705,86.548 46.763 C 86.700 46.795,86.934 46.671,87.068 46.488 C 87.437 45.984,90.625 43.556,90.918 43.556 C 91.059 43.556,91.969 42.905,92.940 42.110 C 93.911 41.314,94.705 40.808,94.705 40.986 C 94.705 41.164,95.072 40.916,95.520 40.435 C 95.968 39.954,96.598 39.560,96.919 39.560 C 97.240 39.560,97.502 39.381,97.502 39.161 C 97.502 38.941,97.778 38.761,98.114 38.761 C 98.451 38.761,98.829 38.493,98.956 38.164 C 99.082 37.836,99.346 37.667,99.542 37.788 C 99.739 37.910,99.900 37.830,99.900 37.612 C 99.900 37.393,100.529 36.987,101.299 36.709 C 102.068 36.431,102.697 36.049,102.697 35.860 C 102.697 35.672,102.877 35.628,103.097 35.764 C 103.317 35.900,103.497 35.853,103.497 35.659 C 103.497 35.465,104.351 34.880,105.395 34.359 C 106.439 33.837,107.625 33.101,108.031 32.723 C 108.438 32.344,109.225 31.921,109.781 31.781 C 110.337 31.642,111.428 31.095,112.206 30.567 C 112.984 30.038,113.770 29.698,113.953 29.811 C 114.136 29.925,114.286 29.839,114.286 29.621 C 114.286 29.259,115.353 28.751,116.569 28.533 C 116.836 28.486,117.555 28.105,118.167 27.687 C 119.384 26.856,124.478 24.655,124.914 24.771 C 125.063 24.811,125.313 24.636,125.470 24.383 C 125.626 24.130,126.006 23.873,126.314 23.811 C 126.621 23.750,127.379 23.492,127.998 23.238 C 128.617 22.985,129.370 22.777,129.673 22.777 C 129.975 22.777,130.336 22.594,130.474 22.371 C 130.612 22.148,130.877 22.059,131.064 22.175 C 131.251 22.290,131.688 22.101,132.036 21.753 C 132.383 21.406,132.667 21.208,132.667 21.314 C 132.667 21.420,133.881 21.064,135.365 20.522 C 141.634 18.231,142.918 17.828,145.355 17.388 C 146.289 17.219,147.053 16.913,147.053 16.709 C 147.053 16.504,147.253 16.460,147.497 16.611 C 147.742 16.762,148.056 16.714,148.197 16.504 C 148.434 16.148,152.251 15.124,155.445 14.559 C 156.214 14.423,157.023 14.279,157.243 14.238 C 157.463 14.197,157.867 14.023,158.142 13.851 C 158.417 13.680,158.821 13.650,159.041 13.786 C 159.261 13.922,159.441 13.878,159.441 13.688 C 159.441 13.407,165.358 12.302,166.833 12.307 C 167.053 12.308,167.532 12.149,167.897 11.953 C 168.263 11.758,169.387 11.566,170.395 11.528 C 171.403 11.490,172.228 11.284,172.228 11.071 C 172.228 10.852,172.903 10.775,173.789 10.893 C 174.648 11.009,175.502 10.964,175.687 10.794 C 176.001 10.506,178.505 10.273,187.012 9.739 C 188.880 9.622,190.463 9.470,190.530 9.403 C 190.699 9.235,211.948 9.552,214.186 9.756 M95.504 150.030 C 95.504 159.226,95.636 160.852,96.346 160.414 C 96.542 160.292,96.707 160.428,96.711 160.716 C 96.715 161.003,97.339 161.949,98.096 162.817 C 98.854 163.685,99.405 164.465,99.320 164.549 C 99.235 164.634,99.882 165.452,100.758 166.368 C 101.633 167.283,102.595 168.495,102.897 169.061 C 103.198 169.627,103.996 170.680,104.669 171.401 C 105.343 172.122,105.894 172.973,105.894 173.293 C 105.894 173.612,106.061 173.770,106.265 173.644 C 106.469 173.518,106.746 173.761,106.880 174.183 C 107.014 174.606,107.653 175.553,108.301 176.287 C 108.948 177.021,109.481 177.751,109.484 177.909 C 109.488 178.066,110.075 178.832,110.789 179.610 C 111.503 180.388,112.088 181.159,112.088 181.322 C 112.088 181.485,112.493 182.068,112.987 182.617 C 114.625 184.437,115.087 185.015,114.904 185.015 C 114.805 185.015,115.140 185.464,115.648 186.013 C 116.157 186.562,117.092 187.775,117.727 188.710 C 118.362 189.645,119.016 190.470,119.181 190.543 C 119.346 190.616,119.481 190.910,119.481 191.196 C 119.481 191.482,119.936 192.015,120.492 192.379 C 121.049 192.744,121.398 193.214,121.268 193.424 C 121.138 193.634,121.222 193.806,121.455 193.806 C 121.688 193.806,121.878 194.087,121.878 194.429 C 121.878 194.772,122.031 194.958,122.217 194.842 C 122.404 194.727,122.809 195.120,123.117 195.715 C 123.424 196.311,124.071 197.248,124.552 197.799 C 125.034 198.350,125.394 198.933,125.352 199.093 C 125.309 199.254,125.679 199.669,126.174 200.015 C 126.668 200.361,127.073 200.890,127.073 201.191 C 127.073 201.491,127.612 202.276,128.272 202.936 C 128.931 203.595,129.471 204.309,129.471 204.522 C 129.471 204.735,129.740 205.013,130.070 205.140 C 130.400 205.266,130.669 205.656,130.669 206.005 C 130.669 206.355,130.849 206.529,131.069 206.394 C 131.289 206.258,131.469 206.344,131.469 206.586 C 131.469 207.169,133.085 209.451,133.966 210.111 C 134.351 210.399,134.665 210.875,134.665 211.169 C 134.665 211.462,134.946 211.811,135.290 211.942 C 135.634 212.074,135.803 212.363,135.666 212.585 C 135.529 212.806,135.582 212.987,135.783 212.987 C 136.127 212.987,139.461 217.183,139.461 217.616 C 139.461 217.727,139.910 218.302,140.460 218.894 C 141.009 219.487,141.459 220.154,141.459 220.377 C 141.459 220.600,141.998 221.291,142.657 221.913 C 143.317 222.536,143.856 223.218,143.856 223.430 C 143.856 223.641,144.351 224.273,144.955 224.833 C 145.559 225.393,146.007 225.969,145.950 226.112 C 145.892 226.256,146.266 226.823,146.780 227.373 C 147.294 227.922,148.056 228.911,148.473 229.570 C 148.889 230.230,149.509 231.039,149.851 231.369 C 151.190 232.662,153.846 236.299,153.846 236.839 C 153.846 237.153,154.010 237.308,154.210 237.185 C 154.514 236.997,156.860 240.211,157.403 241.558 C 157.492 241.778,157.941 242.332,158.402 242.789 C 159.603 243.979,160.639 245.314,160.639 245.670 C 160.639 245.838,160.954 246.273,161.339 246.636 C 162.472 247.707,163.091 248.550,162.753 248.565 C 162.580 248.572,162.797 248.887,163.237 249.264 C 164.391 250.254,166.633 253.185,166.633 253.704 C 166.633 253.947,166.783 254.146,166.966 254.146 C 167.262 254.146,169.393 256.873,171.029 259.345 C 171.359 259.843,172.002 260.721,172.459 261.294 C 172.917 261.868,173.410 262.664,173.556 263.062 C 173.701 263.461,173.975 263.691,174.165 263.574 C 174.354 263.457,174.714 263.812,174.965 264.363 C 175.449 265.425,175.518 265.522,177.409 267.785 C 178.076 268.583,178.621 269.398,178.621 269.595 C 178.621 269.792,178.981 270.213,179.421 270.529 C 179.860 270.846,180.220 271.262,180.220 271.454 C 180.220 271.931,181.537 273.569,181.969 273.628 C 182.320 273.676,183.042 274.778,183.773 276.382 C 183.988 276.853,184.339 277.303,184.553 277.381 C 185.059 277.565,189.411 283.642,189.411 284.164 C 189.411 284.383,189.590 284.452,189.810 284.316 C 190.030 284.180,190.210 284.272,190.210 284.520 C 190.210 284.769,190.435 285.223,190.709 285.529 C 191.961 286.925,192.408 287.513,192.408 287.764 C 192.408 287.914,192.863 288.548,193.421 289.173 C 193.978 289.798,194.468 290.449,194.510 290.620 C 194.552 290.790,195.066 291.375,195.653 291.918 C 196.240 292.462,196.597 292.907,196.446 292.907 C 196.163 292.907,196.329 293.132,198.008 295.026 C 198.554 295.641,199.001 296.302,199.001 296.495 C 199.001 298.062,200.671 296.774,203.435 293.073 C 206.577 288.866,207.113 288.184,208.292 286.884 C 208.676 286.461,208.991 286.026,208.991 285.919 C 208.991 285.811,209.255 285.407,209.578 285.020 C 209.901 284.632,211.082 283.147,212.204 281.718 C 213.325 280.290,214.460 278.851,214.724 278.521 C 214.989 278.192,215.271 277.742,215.351 277.522 C 215.430 277.303,216.454 275.864,217.626 274.326 C 218.798 272.787,220.257 270.839,220.868 269.996 C 221.478 269.153,222.479 267.939,223.091 267.299 C 223.703 266.658,224.092 266.134,223.955 266.134 C 223.819 266.134,224.666 264.920,225.837 263.437 C 227.008 261.953,228.147 260.502,228.369 260.212 C 228.590 259.921,229.086 259.387,229.471 259.024 C 229.855 258.661,230.170 258.140,230.170 257.867 C 230.170 257.594,230.529 257.178,230.969 256.943 C 231.409 256.708,231.768 256.252,231.768 255.930 C 231.768 255.608,231.948 255.345,232.168 255.345 C 232.388 255.345,232.567 255.075,232.567 254.745 C 232.567 254.416,232.735 254.146,232.940 254.146 C 233.145 254.146,233.418 253.813,233.548 253.406 C 233.831 252.513,237.356 247.910,237.378 248.403 C 237.387 248.595,237.642 248.181,237.945 247.484 C 238.248 246.787,238.871 246.016,239.328 245.772 C 239.786 245.527,240.160 245.063,240.160 244.741 C 240.160 244.419,240.340 244.156,240.559 244.156 C 240.779 244.156,240.959 243.888,240.959 243.560 C 240.959 243.232,241.319 242.739,241.758 242.465 C 242.198 242.190,242.557 241.773,242.557 241.538 C 242.557 241.303,243.142 240.505,243.856 239.764 C 244.570 239.023,244.885 238.554,244.555 238.723 C 244.226 238.892,244.325 238.700,244.776 238.296 C 245.227 237.893,246.084 236.798,246.680 235.864 C 247.276 234.930,247.941 234.166,248.158 234.166 C 248.374 234.166,248.551 233.938,248.551 233.659 C 248.551 233.222,249.264 232.253,252.370 228.467 C 252.687 228.080,252.947 227.625,252.947 227.456 C 252.947 227.288,253.307 226.890,253.746 226.573 C 254.186 226.257,254.545 225.772,254.545 225.495 C 254.545 225.219,255.001 224.695,255.557 224.331 C 256.113 223.966,256.481 223.581,256.375 223.475 C 256.269 223.368,256.398 223.038,256.662 222.740 C 256.927 222.442,257.450 221.789,257.825 221.289 C 258.201 220.789,258.965 219.814,259.524 219.123 C 260.082 218.432,260.539 217.739,260.539 217.582 C 260.539 217.426,260.944 216.810,261.439 216.213 C 261.933 215.616,262.787 214.532,263.337 213.804 C 263.886 213.076,264.754 212.010,265.265 211.435 C 265.776 210.860,266.489 209.940,266.849 209.391 C 267.458 208.461,270.080 205.045,270.529 204.595 C 271.474 203.651,272.229 202.515,271.728 202.790 C 271.061 203.158,273.237 200.595,274.026 200.084 C 274.301 199.906,274.525 199.540,274.525 199.270 C 274.525 199.000,275.055 198.200,275.702 197.492 C 276.349 196.783,276.791 196.204,276.685 196.204 C 276.579 196.204,276.874 195.799,277.341 195.305 C 277.808 194.810,278.443 193.922,278.753 193.331 C 279.063 192.740,279.650 192.021,280.058 191.733 C 280.466 191.444,281.106 190.615,281.480 189.890 C 281.854 189.164,282.419 188.471,282.736 188.349 C 283.053 188.228,283.219 187.978,283.106 187.795 C 282.993 187.612,283.136 187.316,283.424 187.137 C 283.711 186.959,284.500 185.965,285.176 184.928 C 285.853 183.891,286.520 183.157,286.659 183.296 C 286.799 183.436,286.913 183.269,286.913 182.927 C 286.913 182.584,287.173 182.203,287.492 182.081 C 287.810 181.959,288.376 181.266,288.750 180.540 C 289.124 179.814,289.763 178.986,290.169 178.699 C 290.576 178.411,290.909 177.917,290.909 177.600 C 290.909 177.283,291.089 177.023,291.309 177.023 C 291.528 177.023,291.708 176.748,291.708 176.411 C 291.708 176.074,291.978 175.696,292.308 175.569 C 292.637 175.443,292.907 175.173,292.907 174.971 C 292.907 174.646,296.376 169.957,297.482 168.787 C 297.713 168.543,298.531 167.337,299.301 166.109 C 300.070 164.880,300.912 163.866,301.172 163.855 C 301.432 163.845,301.759 163.477,301.898 163.037 C 302.038 162.597,302.300 162.238,302.481 162.238 C 302.662 162.238,302.923 161.789,303.061 161.241 C 303.198 160.693,303.532 160.288,303.803 160.342 C 304.181 160.417,304.317 158.129,304.386 150.524 L 304.476 140.608 303.154 141.933 C 302.426 142.661,301.890 143.373,301.962 143.515 C 302.034 143.656,301.825 143.876,301.496 144.002 C 301.168 144.128,300.895 144.461,300.890 144.743 C 300.885 145.024,300.300 145.911,299.591 146.712 C 297.825 148.708,297.215 149.477,296.431 150.693 C 296.062 151.267,295.464 152.031,295.104 152.391 C 294.743 152.752,294.558 153.047,294.693 153.047 C 294.996 153.047,294.273 153.953,292.707 155.537 C 292.048 156.204,291.778 156.606,292.108 156.432 C 292.772 156.081,291.270 157.921,289.710 159.370 C 289.161 159.880,288.981 160.156,289.311 159.984 C 289.960 159.645,288.583 161.586,286.813 163.505 C 286.209 164.161,285.714 164.850,285.714 165.037 C 285.714 165.224,285.109 166.020,284.368 166.805 C 283.628 167.590,283.096 168.232,283.185 168.232 C 283.275 168.232,283.153 168.457,282.914 168.731 C 282.675 169.006,281.750 170.220,280.857 171.429 C 279.965 172.637,279.099 173.716,278.934 173.826 C 278.768 173.936,278.336 174.605,277.974 175.313 C 277.611 176.021,276.957 176.791,276.519 177.025 C 276.082 177.259,275.724 177.720,275.724 178.049 C 275.724 178.377,275.455 178.750,275.125 178.876 C 274.795 179.003,274.525 179.317,274.525 179.575 C 274.525 179.833,274.175 180.296,273.748 180.604 C 273.320 180.912,273.062 181.313,273.174 181.494 C 273.286 181.675,273.096 181.932,272.753 182.064 C 272.409 182.195,272.128 182.562,272.128 182.878 C 272.128 183.194,271.686 183.894,271.147 184.434 C 270.608 184.973,270.246 185.415,270.344 185.415 C 270.539 185.415,269.530 186.711,268.432 187.872 C 268.047 188.279,267.732 188.802,267.732 189.035 C 267.732 189.267,267.552 189.347,267.333 189.211 C 267.113 189.075,266.933 189.258,266.933 189.618 C 266.933 189.977,266.407 190.797,265.765 191.439 C 265.123 192.082,264.707 192.607,264.841 192.607 C 264.976 192.607,264.737 192.958,264.311 193.387 C 263.105 194.602,262.537 195.342,262.537 195.699 C 262.537 195.880,262.178 196.287,261.738 196.603 C 261.299 196.920,260.939 197.308,260.939 197.466 C 260.939 197.624,260.400 198.344,259.740 199.065 C 259.081 199.787,258.541 200.568,258.541 200.800 C 258.541 201.032,258.191 201.474,257.764 201.783 C 257.336 202.091,257.077 202.490,257.188 202.670 C 257.299 202.850,257.203 202.997,256.975 202.997 C 256.746 202.997,256.207 203.671,255.776 204.496 C 255.345 205.320,254.433 206.578,253.749 207.293 C 253.066 208.007,252.615 208.591,252.746 208.591 C 252.878 208.591,252.347 209.248,251.568 210.051 C 250.788 210.854,250.150 211.747,250.150 212.035 C 250.150 212.323,249.790 212.752,249.351 212.987 C 248.911 213.222,248.551 213.596,248.551 213.817 C 248.551 214.220,248.160 214.773,246.853 216.212 C 246.469 216.636,246.287 216.983,246.449 216.983 C 246.612 216.983,246.252 217.440,245.650 217.998 C 245.048 218.557,244.555 219.236,244.555 219.508 C 244.555 219.780,244.241 220.281,243.856 220.623 C 242.920 221.453,240.883 224.053,240.247 225.227 C 239.965 225.748,239.606 226.179,239.448 226.185 C 239.290 226.190,238.720 226.910,238.181 227.783 C 237.643 228.656,237.058 229.371,236.883 229.371 C 236.707 229.371,236.563 229.630,236.563 229.947 C 236.563 230.265,236.164 230.804,235.675 231.146 C 235.187 231.488,234.962 231.774,235.176 231.780 C 235.390 231.787,235.250 231.976,234.865 232.200 C 234.481 232.424,234.166 232.797,234.166 233.029 C 234.166 233.261,233.715 233.806,233.163 234.240 C 232.611 234.674,232.262 235.194,232.387 235.397 C 232.512 235.599,232.436 235.764,232.218 235.764 C 232.000 235.764,231.721 236.079,231.598 236.464 C 231.475 236.848,230.749 237.882,229.985 238.761 C 229.222 239.640,228.404 240.584,228.169 240.859 C 227.933 241.134,227.836 241.359,227.952 241.359 C 228.195 241.359,227.189 242.658,225.874 244.044 C 225.380 244.565,224.975 245.154,224.975 245.353 C 224.975 245.552,224.660 245.891,224.276 246.106 C 223.891 246.321,223.616 246.645,223.665 246.825 C 223.714 247.005,222.815 248.322,221.667 249.750 C 220.519 251.179,219.455 252.527,219.301 252.747 C 219.147 252.967,218.383 253.888,217.602 254.794 C 216.822 255.699,216.184 256.545,216.184 256.672 C 216.184 257.208,213.693 260.539,213.292 260.539 C 213.051 260.539,212.963 260.649,213.096 260.782 C 213.358 261.044,212.995 261.572,211.289 263.412 C 210.684 264.064,210.190 264.744,210.190 264.924 C 210.190 265.103,209.695 265.780,209.091 266.428 C 208.487 267.076,207.740 268.078,207.432 268.654 C 207.124 269.231,206.692 269.591,206.471 269.455 C 206.251 269.319,206.185 269.392,206.324 269.618 C 206.464 269.844,206.177 270.487,205.687 271.046 C 203.729 273.277,203.068 274.126,203.288 274.126 C 203.415 274.126,203.104 274.486,202.597 274.925 C 202.091 275.365,201.828 275.724,202.014 275.724 C 202.200 275.724,201.781 276.197,201.084 276.775 C 200.386 277.353,199.937 278.026,200.085 278.273 C 200.232 278.520,200.049 278.474,199.677 278.173 C 199.305 277.871,199.001 277.377,199.001 277.074 C 199.001 276.771,198.821 276.523,198.601 276.523 C 198.382 276.523,198.202 276.254,198.202 275.924 C 198.202 275.594,198.048 275.325,197.860 275.325 C 197.672 275.325,196.753 274.233,195.817 272.898 C 194.880 271.564,193.686 270.009,193.161 269.444 C 192.637 268.878,192.208 268.284,192.208 268.124 C 192.208 267.964,191.585 267.153,190.824 266.322 C 190.063 265.491,189.522 264.678,189.623 264.515 C 189.723 264.353,189.537 264.116,189.208 263.990 C 188.880 263.864,188.611 263.526,188.611 263.238 C 188.611 262.950,188.297 262.412,187.912 262.041 C 186.561 260.738,185.814 259.870,185.814 259.603 C 185.814 259.455,185.348 258.811,184.778 258.171 C 184.209 257.532,183.771 256.890,183.806 256.746 C 183.840 256.601,183.542 256.182,183.143 255.813 C 182.744 255.445,181.795 254.335,181.034 253.346 C 180.273 252.357,179.508 251.489,179.335 251.415 C 179.163 251.342,179.021 251.110,179.021 250.899 C 179.021 250.689,177.771 248.964,176.244 247.066 C 174.716 245.168,173.538 243.500,173.625 243.359 C 173.712 243.218,173.433 242.850,173.006 242.542 C 172.578 242.234,172.228 241.834,172.228 241.653 C 172.228 241.301,171.764 240.693,170.312 239.142 C 169.807 238.603,169.482 238.162,169.590 238.162 C 169.697 238.162,169.264 237.592,168.628 236.895 C 167.991 236.197,167.580 235.433,167.715 235.196 C 167.850 234.959,167.818 234.894,167.643 235.051 C 167.348 235.318,165.834 233.754,165.834 233.182 C 165.834 233.040,165.296 232.349,164.637 231.647 C 163.979 230.944,163.439 230.237,163.438 230.074 C 163.437 229.779,162.983 229.189,160.945 226.836 C 160.345 226.142,159.850 225.344,159.847 225.062 C 159.843 224.781,159.579 224.450,159.259 224.327 C 158.940 224.205,158.292 223.451,157.821 222.651 C 157.349 221.852,156.622 220.959,156.204 220.667 C 155.786 220.374,155.445 219.902,155.445 219.619 C 155.445 219.167,155.139 218.716,153.497 216.747 C 153.297 216.507,152.530 215.617,151.792 214.770 C 151.053 213.923,150.719 213.363,151.049 213.527 C 151.379 213.690,151.244 213.523,150.749 213.157 C 150.255 212.790,149.850 212.242,149.850 211.939 C 149.850 211.636,149.670 211.389,149.451 211.389 C 149.231 211.389,149.051 211.108,149.051 210.766 C 149.051 210.423,148.884 210.246,148.680 210.372 C 148.476 210.498,148.195 210.240,148.055 209.798 C 147.914 209.357,147.578 208.770,147.306 208.494 C 146.073 207.240,142.724 202.657,142.881 202.440 C 142.978 202.307,142.938 202.287,142.793 202.395 C 142.554 202.574,141.273 201.075,141.259 200.599 C 141.244 200.086,139.958 198.637,139.724 198.870 C 139.579 199.015,139.461 198.834,139.461 198.468 C 139.461 198.102,139.251 197.802,138.994 197.802 C 138.738 197.802,138.645 197.686,138.787 197.543 C 138.930 197.401,138.663 196.951,138.193 196.544 C 137.724 196.137,137.440 195.804,137.562 195.804 C 137.684 195.804,137.261 195.246,136.624 194.563 C 135.986 193.881,135.465 193.041,135.465 192.698 C 135.465 192.355,135.351 192.188,135.212 192.327 C 134.917 192.622,133.467 190.892,133.467 190.247 C 133.467 190.007,133.257 189.810,133.000 189.810 C 132.744 189.810,132.636 189.709,132.760 189.584 C 132.884 189.460,132.631 188.966,132.197 188.485 C 130.343 186.432,126.183 180.912,126.703 181.196 C 127.017 181.367,126.733 181.043,126.074 180.478 C 125.415 179.912,125.017 179.443,125.191 179.435 C 125.573 179.418,124.858 178.492,123.377 177.088 C 122.772 176.515,122.278 175.847,122.278 175.605 C 122.278 175.363,121.828 174.742,121.279 174.226 C 120.729 173.710,120.280 173.126,120.280 172.929 C 120.280 172.732,120.055 172.328,119.780 172.032 C 119.505 171.735,118.921 171.024,118.482 170.452 C 118.042 169.879,117.445 169.145,117.154 168.821 C 116.864 168.497,116.769 168.232,116.943 168.232 C 117.118 168.232,116.859 167.950,116.367 167.606 C 115.876 167.262,115.113 166.273,114.672 165.408 C 114.231 164.544,113.728 163.836,113.555 163.836 C 113.265 163.836,110.689 160.430,110.689 160.046 C 110.689 159.953,110.227 159.374,109.662 158.759 C 107.463 156.367,107.260 156.103,107.892 156.456 C 108.222 156.640,107.817 156.088,106.993 155.230 C 106.169 154.372,105.495 153.522,105.495 153.341 C 105.495 152.986,105.383 152.838,103.306 150.450 C 102.542 149.570,101.912 148.736,101.907 148.596 C 101.902 148.455,101.273 147.646,100.509 146.797 C 99.745 145.949,99.115 145.030,99.110 144.755 C 99.105 144.481,98.921 144.256,98.701 144.256 C 98.482 144.256,98.302 143.980,98.302 143.644 C 98.302 143.307,98.039 142.931,97.718 142.808 C 97.396 142.684,97.030 142.257,96.903 141.858 C 96.776 141.459,96.410 141.032,96.089 140.909 C 95.586 140.716,95.504 141.995,95.504 150.030 " stroke="none" fill="#fccc5c" fill-rule="evenodd"></path><path id="path1" d="" stroke="none" fill="#100cc5c" fill-rule="evenodd"></path><path id="path2" d="" stroke="none" fill="#100cc5c" fill-rule="evenodd"></path><path id="path3" d="" stroke="none" fill="#100cc5c" fill-rule="evenodd"></path><path id="path4" d="" stroke="none" fill="#100cc5c" fill-rule="evenodd"></path></g></svg>